<svg width="25" height="24" viewBox="0 0 25 24" fill="none" xmlns="http://www.w3.org/2000/svg">
<path d="M13.7713 5.72691C13.7713 5.97254 13.7713 6.77312 13.7713 7.91049H17.6818L17.2579 11.3964H13.7713C13.7713 16.7724 13.7713 23.9765 13.7713 23.9765H9.14357C9.14357 23.9765 9.14357 16.8678 9.14357 11.3964H6.73218V7.91049H9.14357C9.14357 6.52805 9.14357 5.54504 9.14357 5.27134C9.14357 3.96727 9.04532 3.34852 9.59943 2.33799C10.1538 1.32751 11.7176 -0.00814899 14.4222 0.0240073C17.1275 0.0573354 18.2678 0.317585 18.2678 0.317585L17.6818 4.03276C17.6818 4.03276 15.9544 3.57662 15.1064 3.73918C14.2596 3.90179 13.7713 4.42341 13.7713 5.72691Z" fill="white"/>
</svg>
