<svg width="64" height="47" viewBox="0 0 64 47" fill="none" xmlns="http://www.w3.org/2000/svg">
<path d="M30.7935 32.7234V0H41.8269C44.3779 0 46.4719 0.436739 48.1089 1.31022C49.7458 2.17304 50.9576 3.36076 51.7441 4.87337C52.5307 6.38597 52.924 8.1063 52.924 10.0343C52.924 11.9624 52.5307 13.6721 51.7441 15.1634C50.9576 16.6547 49.7511 17.8264 48.1248 18.6786C46.4985 19.5201 44.4204 19.9408 41.8906 19.9408H32.9619V16.3617H41.7631C43.5063 16.3617 44.9094 16.1061 45.9723 15.5948C47.0459 15.0835 47.8219 14.3591 48.3002 13.4217C48.7892 12.4737 49.0336 11.3446 49.0336 10.0343C49.0336 8.72412 48.7892 7.57901 48.3002 6.59901C47.8112 5.61902 47.03 4.86271 45.9564 4.3301C44.8828 3.78684 43.4638 3.51521 41.6993 3.51521H34.7476V32.7234H30.7935ZM46.1637 18.0235L54.1995 32.7234H49.6076L41.6993 18.0235H46.1637Z" fill="black"/>
<path d="M8.34405 32.7234V0H19.3774C21.9285 0 24.0225 0.436739 25.6594 1.31022C27.2964 2.17304 28.5081 3.36076 29.2947 4.87337C30.0813 6.38597 30.4746 8.1063 30.4746 10.0343C30.4746 11.9624 30.0813 13.6721 29.2947 15.1634C28.5081 16.6547 27.3017 17.8264 25.6754 18.6786C24.0491 19.5201 21.971 19.9408 19.4412 19.9408H10.5125V16.3617H19.3137C21.0569 16.3617 22.46 16.1061 23.5229 15.5948C24.5965 15.0835 25.3724 14.3591 25.8508 13.4217C26.3397 12.4737 26.5842 11.3446 26.5842 10.0343C26.5842 8.72412 26.3397 7.57901 25.8508 6.59901C25.3618 5.61902 24.5806 4.86271 23.507 4.3301C22.4334 3.78684 21.0144 3.51521 19.2499 3.51521H12.2982V32.7234H8.34405ZM23.7143 18.0235L31.7501 32.7234H27.1582L19.2499 18.0235H23.7143Z" fill="black"/>
<path d="M0 46.7843V34.513H4.13752C5.09417 34.513 5.87942 34.6768 6.49327 35.0043C7.10713 35.3279 7.56153 35.7733 7.8565 36.3405C8.15147 36.9077 8.29895 37.5529 8.29895 38.2759C8.29895 38.9989 8.15147 39.64 7.8565 40.1993C7.56153 40.7585 7.10912 41.1979 6.49925 41.5175C5.88939 41.833 5.11011 41.9908 4.16143 41.9908H0.813154V40.6487H4.1136C4.76731 40.6487 5.29347 40.5528 5.69208 40.361C6.09467 40.1693 6.38565 39.8977 6.56502 39.5462C6.74838 39.1906 6.84006 38.7672 6.84006 38.2759C6.84006 37.7845 6.74838 37.3551 6.56502 36.9876C6.38166 36.6201 6.08869 36.3365 5.6861 36.1368C5.28351 35.9331 4.75137 35.8312 4.08969 35.8312H1.48281V46.7843H0ZM5.76383 41.2718L8.77728 46.7843H7.05531L4.08969 41.2718H5.76383Z" fill="black"/>
<path d="M10.5785 46.7843V37.5808H11.9895V46.7843H10.5785ZM11.296 36.0469C11.0209 36.0469 10.7838 35.953 10.5845 35.7653C10.3891 35.5776 10.2915 35.3519 10.2915 35.0882C10.2915 34.8246 10.3891 34.5989 10.5845 34.4111C10.7838 34.2234 11.0209 34.1295 11.296 34.1295C11.571 34.1295 11.8062 34.2234 12.0015 34.4111C12.2008 34.5989 12.3004 34.8246 12.3004 35.0882C12.3004 35.3519 12.2008 35.5776 12.0015 35.7653C11.8062 35.953 11.571 36.0469 11.296 36.0469Z" fill="black"/>
<path d="M18.6637 37.5808V38.7792H13.713V37.5808H18.6637ZM15.1958 46.7843V36.3106C15.1958 35.7833 15.3194 35.3439 15.5665 34.9924C15.8137 34.6408 16.1345 34.3772 16.5291 34.2014C16.9238 34.0257 17.3403 33.9378 17.7788 33.9378C18.1256 33.9378 18.4086 33.9658 18.6278 34.0217C18.847 34.0776 19.0105 34.1295 19.1181 34.1775L18.7115 35.3998C18.6398 35.3758 18.5401 35.3459 18.4126 35.3099C18.289 35.274 18.1256 35.256 17.9223 35.256C17.4559 35.256 17.1191 35.3738 16.9118 35.6095C16.7085 35.8452 16.6069 36.1907 16.6069 36.6461V46.7843H15.1958Z" fill="black"/>
<path d="M24.7309 37.5808V38.7792H19.7803V37.5808H24.7309ZM21.2631 46.7843V36.3106C21.2631 35.7833 21.3866 35.3439 21.6338 34.9924C21.8809 34.6408 22.2018 34.3772 22.5964 34.2014C22.991 34.0257 23.4076 33.9378 23.846 33.9378C24.1928 33.9378 24.4758 33.9658 24.6951 34.0217C24.9143 34.0776 25.0777 34.1295 25.1854 34.1775L24.7788 35.3998C24.707 35.3758 24.6074 35.3459 24.4798 35.3099C24.3563 35.274 24.1928 35.256 23.9895 35.256C23.5232 35.256 23.1863 35.3738 22.9791 35.6095C22.7758 35.8452 22.6741 36.1907 22.6741 36.6461V46.7843H21.2631Z" fill="black"/>
<path d="M26.8999 46.7843V34.513H31.0374C31.994 34.513 32.7793 34.6768 33.3931 35.0043C34.007 35.3279 34.4614 35.7733 34.7564 36.3405C35.0513 36.9077 35.1988 37.5529 35.1988 38.2759C35.1988 38.9989 35.0513 39.64 34.7564 40.1993C34.4614 40.7585 34.009 41.1979 33.3991 41.5175C32.7892 41.833 32.01 41.9908 31.0613 41.9908H27.713V40.6487H31.0135C31.6672 40.6487 32.1933 40.5528 32.5919 40.361C32.9945 40.1693 33.2855 39.8977 33.4649 39.5462C33.6482 39.1906 33.7399 38.7672 33.7399 38.2759C33.7399 37.7845 33.6482 37.3551 33.4649 36.9876C33.2815 36.6201 32.9885 36.3365 32.5859 36.1368C32.1834 35.9331 31.6512 35.8312 30.9895 35.8312H28.3827V46.7843H26.8999ZM32.6637 41.2718L35.6771 46.7843H33.9552L30.9895 41.2718H32.6637Z" fill="black"/>
<path d="M40.1809 47C39.5989 47 39.0708 46.8902 38.5964 46.6704C38.1221 46.4468 37.7454 46.1252 37.4664 45.7058C37.1873 45.2823 37.0478 44.771 37.0478 44.1719C37.0478 43.6446 37.1515 43.2172 37.3587 42.8896C37.566 42.5581 37.843 42.2984 38.1898 42.1107C38.5366 41.9229 38.9193 41.7831 39.3378 41.6912C39.7603 41.5954 40.1849 41.5195 40.6114 41.4635C41.1694 41.3916 41.6218 41.3377 41.9686 41.3018C42.3194 41.2618 42.5745 41.1959 42.7339 41.104C42.8974 41.0122 42.9791 40.8524 42.9791 40.6247V40.5767C42.9791 39.9856 42.8176 39.5262 42.4948 39.1986C42.1759 38.8711 41.6916 38.7073 41.0419 38.7073C40.3682 38.7073 39.8401 38.8551 39.4574 39.1507C39.0747 39.4463 38.8057 39.7619 38.6502 40.0974L37.3109 39.6181C37.5501 39.0588 37.869 38.6234 38.2676 38.3118C38.6702 37.9963 39.1086 37.7766 39.583 37.6527C40.0613 37.5249 40.5316 37.461 40.994 37.461C41.289 37.461 41.6278 37.4969 42.0105 37.5688C42.3971 37.6367 42.7698 37.7786 43.1285 37.9943C43.4913 38.21 43.7922 38.5355 44.0314 38.9709C44.2705 39.4063 44.3901 39.9895 44.3901 40.7206V46.7843H42.9791V45.538H42.9073C42.8117 45.7377 42.6522 45.9514 42.429 46.1791C42.2058 46.4068 41.9088 46.6005 41.5381 46.7603C41.1674 46.9201 40.715 47 40.1809 47ZM40.3961 45.7297C40.9542 45.7297 41.4245 45.6199 41.8072 45.4002C42.1938 45.1805 42.4848 44.8969 42.6801 44.5493C42.8794 44.2018 42.9791 43.8363 42.9791 43.4528V42.1586C42.9193 42.2305 42.7877 42.2964 42.5845 42.3563C42.3852 42.4123 42.154 42.4622 41.8909 42.5061C41.6318 42.5461 41.3787 42.582 41.1315 42.614C40.8884 42.6419 40.6911 42.6659 40.5396 42.6859C40.1729 42.7338 39.8301 42.8117 39.5112 42.9196C39.1963 43.0234 38.9412 43.1812 38.7459 43.3929C38.5546 43.6006 38.4589 43.8842 38.4589 44.2438C38.4589 44.7351 38.6403 45.1066 39.003 45.3582C39.3697 45.6059 39.8341 45.7297 40.3961 45.7297Z" fill="black"/>
<path d="M50.6966 46.976C49.8356 46.976 49.0942 46.7723 48.4723 46.3649C47.8505 45.9574 47.3722 45.3962 47.0374 44.6812C46.7025 43.9661 46.5351 43.1492 46.5351 42.2305C46.5351 41.2958 46.7065 40.4709 47.0493 39.7559C47.3961 39.0368 47.8784 38.4756 48.4963 38.0722C49.1181 37.6647 49.8435 37.461 50.6726 37.461C51.3184 37.461 51.9003 37.5808 52.4185 37.8205C52.9367 38.0602 53.3612 38.3957 53.6921 38.8271C54.0229 39.2585 54.2282 39.7619 54.3079 40.3371H52.8969C52.7892 39.9176 52.5501 39.5462 52.1794 39.2226C51.8127 38.895 51.3184 38.7313 50.6966 38.7313C50.1465 38.7313 49.6642 38.8751 49.2496 39.1627C48.8391 39.4463 48.5182 39.8477 48.287 40.367C48.0598 40.8823 47.9462 41.4875 47.9462 42.1826C47.9462 42.8936 48.0578 43.5128 48.281 44.04C48.5082 44.5673 48.8271 44.9768 49.2377 45.2684C49.6522 45.56 50.1385 45.7058 50.6966 45.7058C51.0633 45.7058 51.3961 45.6419 51.6951 45.514C51.994 45.3862 52.2471 45.2024 52.4544 44.9628C52.6617 44.7231 52.8092 44.4355 52.8969 44.1H54.3079C54.2282 44.6432 54.0309 45.1325 53.716 45.568C53.4051 45.9994 52.9925 46.3429 52.4783 46.5985C51.9681 46.8502 51.3742 46.976 50.6966 46.976Z" fill="black"/>
<path d="M57.6861 43.4289L57.6622 41.6792H57.9492L61.9671 37.5808H63.713L59.432 41.9189H59.3124L57.6861 43.4289ZM56.3707 46.7843V34.513H57.7818V46.7843H56.3707ZM62.2063 46.7843L58.6188 42.2305L59.6233 41.2478L64 46.7843H62.2063Z" fill="black"/>
</svg>
