<svg width="51" height="51" viewBox="0 0 51 51" fill="none" xmlns="http://www.w3.org/2000/svg">
<path d="M36.125 38.25C33.7663 38.25 31.875 40.1413 31.875 42.5C31.875 43.6272 32.3228 44.7082 33.1198 45.5052C33.9168 46.3022 34.9978 46.75 36.125 46.75C37.2522 46.75 38.3332 46.3022 39.1302 45.5052C39.9272 44.7082 40.375 43.6272 40.375 42.5C40.375 41.3728 39.9272 40.2918 39.1302 39.4948C38.3332 38.6978 37.2522 38.25 36.125 38.25ZM2.125 4.25V8.5H6.375L14.025 24.6287L11.135 29.835C10.8162 30.43 10.625 31.1313 10.625 31.875C10.625 33.0022 11.0728 34.0832 11.8698 34.8802C12.6668 35.6772 13.7478 36.125 14.875 36.125H40.375V31.875H15.7675C15.6266 31.875 15.4915 31.819 15.3918 31.7194C15.2922 31.6198 15.2362 31.4846 15.2362 31.3438C15.2362 31.2375 15.2575 31.1525 15.3 31.0888L17.2125 27.625H33.0438C34.6375 27.625 36.04 26.7325 36.7625 25.4363L44.37 11.6875C44.5187 11.3475 44.625 10.9862 44.625 10.625C44.625 10.0614 44.4011 9.52091 44.0026 9.1224C43.6041 8.72388 43.0636 8.5 42.5 8.5H11.0712L9.07375 4.25M14.875 38.25C12.5162 38.25 10.625 40.1413 10.625 42.5C10.625 43.6272 11.0728 44.7082 11.8698 45.5052C12.6668 46.3022 13.7478 46.75 14.875 46.75C16.0022 46.75 17.0832 46.3022 17.8802 45.5052C18.6772 44.7082 19.125 43.6272 19.125 42.5C19.125 41.3728 18.6772 40.2918 17.8802 39.4948C17.0832 38.6978 16.0022 38.25 14.875 38.25Z" fill="black"/>
</svg>
