<svg width="25" height="24" viewBox="0 0 25 24" fill="none" xmlns="http://www.w3.org/2000/svg">
<path d="M18.3254 5.037C17.3364 3.88716 16.8182 2.40156 16.8595 0.889085L13.1638 0.799805C13.1638 0.799805 13.1638 0.957485 13.1638 1.17012V15.9904C13.2154 20.679 5.80751 20.5652 6.39359 15.3827C6.75191 13.322 8.96615 12.0539 10.9337 12.7708V8.99988C6.65015 8.25396 2.59079 11.6634 2.63351 16.0069C3.00791 25.4269 16.519 25.4281 16.8938 16.0069C16.7995 15.6697 16.8523 9.39229 16.8389 8.86285C18.5194 9.90853 20.4746 10.4312 22.4549 10.3643V6.4698C20.6242 6.4698 19.2271 5.98308 18.3254 5.037Z" fill="white"/>
</svg>
